<?xml version="1.0" encoding="UTF-8" standalone="no"?>
<!-- Created with Inkscape (http://www.inkscape.org/) -->

<svg
   width="210mm"
   height="297mm"
   viewBox="0 0 210 297"
   version="1.1"
   id="svg5"
   sodipodi:docname="extrude_base"
   inkscape:version="1.2.2 (b0a8486541, 2022-12-01, custom)"
   xmlns:inkscape="http://www.inkscape.org/namespaces/inkscape"
   xmlns:sodipodi="http://sodipodi.sourceforge.net/DTD/sodipodi-0.dtd"
   xmlns="http://www.w3.org/2000/svg"
   xmlns:svg="http://www.w3.org/2000/svg">
  <sodipodi:namedview
     id="namedview7"
     pagecolor="#505050"
     bordercolor="#eeeeee"
     borderopacity="1"
     inkscape:showpageshadow="0"
     inkscape:pageopacity="0"
     inkscape:pagecheckerboard="0"
     inkscape:deskcolor="#505050"
     inkscape:document-units="mm"
     showgrid="false"
     inkscape:zoom="1.0048392"
     inkscape:cx="274.17322"
     inkscape:cy="233.86827"
     inkscape:window-width="1920"
     inkscape:window-height="1027"
     inkscape:window-x="0"
     inkscape:window-y="25"
     inkscape:window-maximized="1"
     inkscape:current-layer="layer6" />
  <defs
     id="defs2">
    <inkscape:path-effect
       effect="skeletal"
       id="path-effect4843"
       is_visible="true"
       lpeversion="1"
       pattern="M 0.49801716,11.895818 V -3.5823123e-7"
       copytype="repeated_stretched"
       prop_scale="1.1"
       scale_y_rel="true"
       spacing="11.4"
       normal_offset="-5.2"
       tang_offset="0"
       prop_units="false"
       vertical_pattern="false"
       hide_knot="false"
       fuse_tolerance="0" />
    <inkscape:path-effect
       effect="skeletal"
       id="path-effect4843-1"
       is_visible="true"
       lpeversion="1"
       pattern="M 0.49801716,11.895818 V -3.5823123e-7"
       copytype="repeated_stretched"
       prop_scale="1.1"
       scale_y_rel="true"
       spacing="11.4"
       normal_offset="-5.2"
       tang_offset="0"
       prop_units="false"
       vertical_pattern="false"
       hide_knot="false"
       fuse_tolerance="0" />
  </defs>
  <g
     inkscape:groupmode="layer"
     id="layer6"
     inkscape:label="Layer 4">
    <path
       style="fill:#cecece;fill-opacity:1;stroke:#ff0000;stroke-width:7.20000029;stroke-dasharray:none;stroke-opacity:1"
       d="M 105,177.58269 V 34.254582"
       id="path18612" />
  </g>
  <g
     inkscape:label="Layer 1"
     inkscape:groupmode="layer"
     id="layer1">
    <circle
       style="fill:none;stroke:#000000;stroke-width:3.865;stroke-dasharray:none;stroke-opacity:1"
       id="path111"
       cx="68.883972"
       cy="108.88397"
       r="41.951469"
       class="UnoptimicedTransforms"
       transform="translate(-9.1975949,1.7639333)" />
    <path
       class="UnoptimicedTransforms"
       style="fill:#808080;stroke:#dfdfdf;stroke-width:0.996035;stroke-dasharray:none;stroke-opacity:1"
       d="M 68.883971,78.82832 V 66.932502"
       id="path9731"
       transform="translate(-9.1975949,1.7639333)" />
  </g>
  <g
     inkscape:groupmode="layer"
     id="layer2"
     inkscape:label="Layer 2">
    <circle
       style="fill:none;stroke:#000000;stroke-width:7.28114;stroke-dasharray:none;stroke-opacity:1"
       id="circle9876"
       cx="68.883972"
       cy="108.88397"
       r="41.951469"
       class="UnoptimicedTransforms"
       transform="matrix(0.68670602,0,0,0.68670602,12.383339,35.876626)" />
    <path
       style="fill:#252525;fill-opacity:1;stroke:#242424;stroke-width:1;stroke-dasharray:none;stroke-opacity:1"
       d="m 27.25073,95.361183 c -3.031985,-1.280668 -3.396062,-1.481309 -3.397927,-1.872596 -0.0045,-0.943698 2.665656,-5.304864 5.024979,-8.207322 0.888265,-1.092751 1.328124,-1.49053 1.653419,-1.495243 0.320355,-0.0046 1.23462,0.745781 3.298528,2.707405 l 2.855331,2.713828 -1.179751,1.428848 c -1.236295,1.49733 -2.949874,4.040262 -3.628964,5.385337 -0.294039,0.582409 -0.509093,0.789028 -0.814641,0.782696 -0.228325,-0.0047 -1.943264,-0.654058 -3.810974,-1.442953 z"
       id="path11691" />
    <path
       style="fill:#252525;fill-opacity:1;stroke:#242424;stroke-width:0.703702;stroke-dasharray:none;stroke-opacity:1"
       d="m 35.858057,84.394646 c -3.287564,-3.107454 -3.285413,-3.100543 -1.441191,-4.62411 2.601026,-2.148781 7.462137,-5.123367 8.347387,-5.107892 0.27703,0.0048 0.669346,0.675042 1.753294,2.995176 0.768024,1.643914 1.539832,3.317354 1.715129,3.718753 l 0.31872,0.729819 -1.249659,0.631145 c -1.478298,0.746622 -4.270068,2.566241 -5.409951,3.526097 -0.444902,0.374636 -0.927455,0.681159 -1.07234,0.681159 -0.144886,0 -1.47751,-1.147567 -2.961389,-2.550147 z"
       id="path14108" />
    <path
       style="fill:#252525;fill-opacity:1;stroke:#242424;stroke-width:0.703702;stroke-dasharray:none;stroke-opacity:1"
       d="m 48.999757,80.381676 c -0.0898,-0.230407 -0.803679,-1.756939 -1.586407,-3.392297 -0.851929,-1.779939 -1.401077,-3.155801 -1.368173,-3.427888 0.04446,-0.367626 0.250732,-0.52173 1.078997,-0.806104 2.635496,-0.904862 6.415757,-1.658987 9.635212,-1.922129 l 1.536049,-0.12555 v 4.301694 4.301696 H 57.71422 c -1.022816,0 -4.431782,0.565499 -6.238018,1.034799 -2.145453,0.557434 -2.272427,0.559271 -2.476445,0.03578 z"
       id="path14110" />
    <path
       style="fill:#252525;fill-opacity:1;stroke:#242424;stroke-width:0.703702;stroke-dasharray:none;stroke-opacity:1"
       d="M 68.469453,80.511105 C 67.493132,80.153116 64.29251,79.54881 62.531205,79.389912 L 61.08825,79.259735 v -4.256636 c 0,-4.053136 0.01685,-4.256635 0.352647,-4.256635 0.965179,0 4.42042,0.432001 6.070827,0.759024 2.470579,0.489534 6.051077,1.613516 6.05119,1.899576 5.1e-5,0.125021 -0.766183,1.840161 -1.702741,3.811423 -1.890406,3.978918 -1.79015,3.881501 -3.39072,3.294618 z"
       id="path14112" />
    <path
       style="fill:#252525;fill-opacity:1;stroke:#242424;stroke-width:0.703702;stroke-dasharray:none;stroke-opacity:1"
       d="m 79.295806,86.127013 c -1.308444,-1.065852 -3.869119,-2.72873 -5.220965,-3.390447 -0.60752,-0.297376 -1.072055,-0.648192 -1.073986,-0.81108 -0.0019,-0.157875 0.731239,-1.854703 1.629143,-3.770731 1.314119,-2.804192 1.705178,-3.484509 2.004922,-3.487907 1.353518,-0.01534 9.584285,5.575393 9.735971,6.613144 0.03946,0.269963 -0.707147,1.091147 -2.743758,3.01784 -1.538883,1.455828 -2.917095,2.646961 -3.062693,2.646961 -0.1456,0 -0.716483,-0.368001 -1.268634,-0.81778 z"
       id="path14114" />
    <path
       style="fill:#252525;fill-opacity:1;stroke:#242424;stroke-width:0.703702;stroke-dasharray:none;stroke-opacity:1"
       d="m 87.032047,95.206238 c -0.495855,-0.883573 -1.592778,-2.519601 -2.437603,-3.63561 -0.844828,-1.116013 -1.536049,-2.184078 -1.536049,-2.37348 0,-0.20162 1.116422,-1.401548 2.693294,-2.894748 2.067594,-1.957882 2.790463,-2.536364 3.111542,-2.490044 0.848024,0.122341 4.172249,4.58411 6.086224,8.168921 l 0.949404,1.778203 -3.625765,1.526628 c -1.99417,0.839647 -3.786351,1.52663 -3.982627,1.52663 -0.254463,0 -0.615564,-0.460979 -1.25842,-1.6065 z"
       id="path14116" />
    <path
       style="fill:#252525;fill-opacity:1;stroke:#242424;stroke-width:0.703702;stroke-dasharray:none;stroke-opacity:1"
       d="m 90.981906,108.03054 c -0.205959,-2.05527 -0.642786,-4.40643 -1.13293,-6.09781 -0.253111,-0.87343 -0.4602,-1.74028 -0.4602,-1.92633 0,-0.263148 0.809799,-0.679195 3.645895,-1.87314 2.005242,-0.844172 3.76102,-1.490679 3.901725,-1.436685 0.140708,0.05399 0.508397,0.919118 0.817087,1.922497 0.943538,3.066918 1.418166,5.569118 1.785202,9.411468 l 0.120052,1.25677 H 95.38329 91.107845 Z"
       id="path14118" />
    <path
       style="fill:#252525;fill-opacity:1;stroke:#242424;stroke-width:0.703702;stroke-dasharray:none;stroke-opacity:1"
       d="m 92.833249,123.08952 c -3.899371,-1.67217 -3.648906,-1.27436 -2.810526,-4.46392 0.435877,-1.65826 1.02671,-5.19815 1.038106,-6.21964 0.0034,-0.30078 0.333311,-0.32583 4.291137,-0.32583 h 4.287501 l -0.109408,1.25676 c -0.302675,3.47686 -0.923017,6.63102 -1.904153,9.68176 -0.450808,1.40175 -0.535414,1.53483 -0.96764,1.52205 -0.260503,-0.008 -1.981761,-0.66073 -3.825017,-1.45118 z"
       id="path14120" />
    <path
       style="fill:#252525;fill-opacity:1;stroke:#242424;stroke-width:0.703702;stroke-dasharray:none;stroke-opacity:1"
       d="m 85.685985,134.93526 c -1.934072,-1.81542 -2.62759,-2.58186 -2.62759,-2.90389 0,-0.24719 0.332068,-0.81437 0.763394,-1.3039 0.971899,-1.10307 2.826287,-3.86973 3.535783,-5.27524 0.300884,-0.59604 0.660115,-1.08372 0.798285,-1.08372 0.138174,0 1.749819,0.6372 3.581435,1.416 1.831615,0.77879 3.525279,1.49138 3.7637,1.58353 l 0.433493,0.16753 -0.876493,1.62821 c -1.181129,2.19412 -2.973861,4.88899 -4.473688,6.72494 -1.714463,2.09869 -1.62895,2.11534 -4.898319,-0.95346 z"
       id="path14122" />
    <path
       style="fill:#252525;fill-opacity:1;stroke:#242424;stroke-width:0.703702;stroke-dasharray:none;stroke-opacity:1"
       d="m 74.616192,143.08463 c -0.886564,-1.89212 -1.611932,-3.56661 -1.611932,-3.72108 0,-0.15798 0.509087,-0.53679 1.163675,-0.86588 1.490326,-0.74926 3.452082,-2.01043 4.94467,-3.17882 0.681612,-0.53357 1.323063,-0.89492 1.528744,-0.8612 0.518377,0.085 5.768425,5.1379 5.768425,5.55183 0,0.9589 -8.257005,6.50296 -9.698971,6.51226 -0.444588,0.003 -0.609894,-0.2684 -2.094611,-3.43711 z"
       id="path14124" />
    <path
       style="fill:#252525;fill-opacity:1;stroke:#242424;stroke-width:0.703702;stroke-dasharray:none;stroke-opacity:1"
       d="m 61.08825,146.32521 v -4.24605 l 0.884391,-0.10887 c 2.908739,-0.35808 4.813792,-0.7017 6.366197,-1.14828 0.966931,-0.27816 1.787375,-0.42842 1.823212,-0.33391 0.03584,0.0945 0.846072,1.80563 1.800519,3.80249 0.954445,1.99687 1.684012,3.68773 1.621258,3.75748 -0.06275,0.0697 -1.11951,0.43133 -2.348349,0.8035 -2.346494,0.71069 -6.512552,1.48352 -8.797366,1.63198 l -1.349862,0.0877 z"
       id="path14126" />
    <path
       style="fill:#252525;fill-opacity:1;stroke:#242424;stroke-width:0.703702;stroke-dasharray:none;stroke-opacity:1"
       d="m 56.899028,150.4924 c -2.585122,-0.17066 -6.613956,-0.95541 -9.355931,-1.82239 -1.352066,-0.4275 -1.536047,-0.53823 -1.536047,-0.92449 0,-0.34502 2.986143,-7.05326 3.268387,-7.34229 0.03787,-0.0388 0.847045,0.15337 1.798159,0.42701 1.527209,0.43937 3.438149,0.78313 6.337448,1.14005 l 0.884391,0.10887 v 4.27091 c 0,3.3105 -0.05233,4.26336 -0.232735,4.23735 -0.128003,-0.0185 -0.651656,-0.0612 -1.163672,-0.095 z"
       id="path14128" />
    <path
       style="fill:#252525;fill-opacity:1;stroke:#242424;stroke-width:0.703702;stroke-dasharray:none;stroke-opacity:1"
       d="m 40.700699,145.75488 c -2.176507,-1.22225 -4.656743,-2.88985 -6.260975,-4.2096 -1.854494,-1.52563 -1.85733,-1.51603 1.34176,-4.5464 1.441762,-1.36573 2.7775,-2.50928 2.968307,-2.54123 0.197559,-0.0331 0.85252,0.33769 1.521291,0.8612 1.516877,1.1874 3.466902,2.43692 4.991216,3.1982 0.665621,0.33243 1.233422,0.62468 1.261777,0.64943 0.02836,0.0248 -0.730895,1.71146 -1.687227,3.74823 -1.32443,2.82075 -1.82477,3.71252 -2.099622,3.7422 -0.198458,0.0214 -1.114896,-0.38448 -2.036527,-0.90203 z"
       id="path14130" />
    <path
       style="fill:#252525;fill-opacity:1;stroke:#242424;stroke-width:0.703702;stroke-dasharray:none;stroke-opacity:1"
       d="m 28.937409,136.05179 c -2.361549,-2.87811 -5.086694,-7.2533 -5.086694,-8.16665 0,-0.46146 0.21004,-0.58144 3.346117,-1.9114 1.840362,-0.78047 3.551793,-1.41904 3.803181,-1.41904 0.362046,0 0.583052,0.22257 1.063062,1.07058 0.989756,1.74856 2.204796,3.53946 3.361388,4.95448 0.597609,0.73115 1.086662,1.4158 1.086787,1.52146 1.27e-4,0.10566 -1.22401,1.34148 -2.720303,2.74627 -3.334779,3.13085 -3.283252,3.11806 -4.853538,1.2043 z"
       id="path14132" />
    <path
       style="fill:#252525;fill-opacity:1;stroke:#242424;stroke-width:0.703702;stroke-dasharray:none;stroke-opacity:1"
       d="m 21.560196,122.36699 c -0.821097,-2.65806 -1.342747,-5.23703 -1.60709,-7.94531 -0.109185,-1.11862 -0.198519,-2.10308 -0.198519,-2.1877 0,-0.0846 1.917282,-0.15385 4.260627,-0.15385 h 4.260626 l 0.123541,1.25676 c 0.237295,2.41393 1.061146,6.25721 1.695868,7.91127 0.08484,0.22108 -0.678611,0.61754 -3.456924,1.79515 -1.961194,0.83126 -3.754024,1.51139 -3.984069,1.51139 -0.37148,0 -0.493842,-0.24468 -1.09406,-2.18771 z"
       id="path14134" />
    <path
       style="fill:#252525;fill-opacity:1;stroke:#242424;stroke-width:0.703702;stroke-dasharray:none;stroke-opacity:1"
       d="m 19.853795,107.84436 c 0.193617,-2.43497 0.835932,-5.98753 1.499679,-8.29451 0.697185,-2.4232 0.910704,-2.92362 1.247027,-2.922641 0.272616,7.94e-4 7.240595,2.942323 7.444562,3.142718 0.07878,0.07741 0.01088,0.511963 -0.150884,0.965673 -0.551439,1.54658 -1.163611,4.3898 -1.393616,6.47262 l -0.229589,2.07909 h -4.265957 -4.265959 z"
       id="path14136" />
    <circle
       style="fill:none;stroke:#000000;stroke-width:7.28114;stroke-dasharray:none;stroke-opacity:1"
       id="circle14863"
       cx="68.883972"
       cy="108.88397"
       r="41.951469"
       class="UnoptimicedTransforms"
       transform="matrix(0.68670602,0,0,0.68670602,12.383339,35.876626)" />
  </g>
  <path
     style="fill:#e6e6e6;stroke:#c9c9c9;stroke-width:2.71097;stroke-dasharray:none;stroke-opacity:1"
     id="path111-5"
     d="m 96.858114,108.88397 h 13.268076 m -15.534304,10.87418 12.190654,5.15395 m -18.319684,4.2082 9.620165,9.08327 m -18.545111,-2.53392 5.556607,11.78798 M 68.88395,138.10542 v 13.26806 m -10.653978,-15.70386 -5.556637,11.78797 m -3.368294,-18.33734 -9.620186,9.08325 m 3.491176,-18.44541 -12.190665,5.15392 m 9.924464,-16.02811 -13.26807,-3e-5 M 43.176085,98.009728 30.985443,92.855752 M 49.305137,88.647596 39.684992,79.564299 M 58.230096,82.098268 52.673519,70.31027 m 16.210557,9.352236 5.9e-5,-13.268064 m 10.653899,15.703914 5.556667,-11.787959 m 3.36825,18.337351 9.620207,-9.083234 M 94.591941,98.009921 106.78262,92.85603"
     sodipodi:type="arc"
     sodipodi:ry="30.055651"
     sodipodi:rx="28.808327"
     sodipodi:cy="108.88397"
     sodipodi:cx="68.883972"
     inkscape:path-effect="#path-effect4843"
     class="UnoptimicedTransforms"
     transform="translate(-9.1975949,1.7639333)" />
  <circle
     style="fill:none;stroke:#000000;stroke-width:3.865;stroke-dasharray:none;stroke-opacity:1"
     id="path111-8"
     cx="68.883972"
     cy="108.88397"
     r="41.951469"
     class="UnoptimicedTransforms"
     transform="translate(82.275203,1.7639333)" />
  <path
     class="UnoptimicedTransforms"
     style="fill:#808080;stroke:#dfdfdf;stroke-width:0.996035;stroke-dasharray:none;stroke-opacity:1"
     d="M 68.883971,78.82832 V 66.932502"
     id="path9731-3"
     transform="translate(82.275203,1.7639333)" />
  <circle
     style="fill:none;stroke:#000000;stroke-width:7.28114;stroke-dasharray:none;stroke-opacity:1"
     id="circle9876-3"
     cx="68.883972"
     cy="108.88397"
     r="41.951469"
     class="UnoptimicedTransforms"
     transform="matrix(0.68670602,0,0,0.68670602,103.85614,35.876626)" />
  <path
     style="fill:#252525;fill-opacity:1;stroke:#242424;stroke-width:1;stroke-dasharray:none;stroke-opacity:1"
     d="m 118.72353,95.361187 c -3.03198,-1.28067 -3.39606,-1.48131 -3.39792,-1.8726 -0.005,-0.9437 2.66565,-5.304865 5.02498,-8.207323 0.88826,-1.09275 1.32812,-1.49053 1.65341,-1.495242 0.32036,-0.0046 1.23462,0.745781 3.29853,2.707405 l 2.85533,2.71383 -1.17975,1.42885 c -1.23629,1.49733 -2.94987,4.04026 -3.62896,5.38533 -0.29404,0.58241 -0.50909,0.78903 -0.81464,0.7827 -0.22833,-0.005 -1.94327,-0.65406 -3.81098,-1.44295 z"
     id="path11691-6" />
  <path
     style="fill:#252525;fill-opacity:1;stroke:#242424;stroke-width:0.703702;stroke-dasharray:none;stroke-opacity:1"
     d="m 127.33086,84.394646 c -3.28756,-3.107455 -3.28541,-3.100544 -1.44119,-4.62411 2.60103,-2.148782 7.46214,-5.123368 8.34739,-5.107892 0.27703,0.0048 0.66934,0.675042 1.75329,2.995176 0.76802,1.643914 1.53983,3.317353 1.71513,3.718753 l 0.31872,0.729819 -1.24966,0.631145 c -1.4783,0.746622 -4.27007,2.566241 -5.40995,3.526096 -0.4449,0.374637 -0.92746,0.681159 -1.07234,0.681159 -0.14489,0 -1.47751,-1.147566 -2.96139,-2.550146 z"
     id="path14108-7" />
  <path
     style="fill:#252525;fill-opacity:1;stroke:#242424;stroke-width:0.703702;stroke-dasharray:none;stroke-opacity:1"
     d="m 140.47256,80.381676 c -0.0898,-0.230407 -0.80368,-1.756939 -1.58641,-3.392297 -0.85193,-1.779939 -1.40107,-3.155802 -1.36817,-3.427889 0.0445,-0.367625 0.25073,-0.521729 1.079,-0.806103 2.63549,-0.904862 6.41575,-1.658988 9.63521,-1.922129 l 1.53605,-0.12555 v 4.301693 4.301697 h -0.58122 c -1.02281,0 -4.43178,0.565499 -6.23802,1.034798 -2.14545,0.557435 -2.27242,0.559271 -2.47644,0.03578 z"
     id="path14110-2" />
  <path
     style="fill:#252525;fill-opacity:1;stroke:#242424;stroke-width:0.703702;stroke-dasharray:none;stroke-opacity:1"
     d="m 159.94226,80.511105 c -0.97632,-0.357989 -4.17695,-0.962295 -5.93825,-1.121193 l -1.44296,-0.130178 v -4.256635 c 0,-4.053136 0.0169,-4.256635 0.35265,-4.256635 0.96518,0 4.42042,0.432001 6.07083,0.759023 2.47058,0.489535 6.05107,1.613517 6.05119,1.899576 5e-5,0.125021 -0.76619,1.840162 -1.70274,3.811424 -1.89041,3.978918 -1.79015,3.881501 -3.39072,3.294618 z"
     id="path14112-0" />
  <path
     style="fill:#252525;fill-opacity:1;stroke:#242424;stroke-width:0.703702;stroke-dasharray:none;stroke-opacity:1"
     d="m 170.76861,86.127013 c -1.30845,-1.065853 -3.86912,-2.72873 -5.22097,-3.390447 -0.60752,-0.297376 -1.07205,-0.648193 -1.07398,-0.811081 -0.002,-0.157874 0.73124,-1.854702 1.62914,-3.77073 1.31412,-2.804192 1.70518,-3.48451 2.00492,-3.487907 1.35352,-0.01535 9.58429,5.575393 9.73597,6.613144 0.0395,0.269962 -0.70714,1.091147 -2.74375,3.01784 -1.53889,1.455828 -2.9171,2.64696 -3.0627,2.64696 -0.1456,0 -0.71648,-0.368001 -1.26863,-0.817779 z"
     id="path14114-2" />
  <path
     style="fill:#252525;fill-opacity:1;stroke:#242424;stroke-width:0.703702;stroke-dasharray:none;stroke-opacity:1"
     d="m 178.50485,95.206237 c -0.49586,-0.88357 -1.59278,-2.5196 -2.4376,-3.63561 -0.84483,-1.11601 -1.53605,-2.18408 -1.53605,-2.37348 0,-0.201619 1.11642,-1.401547 2.69329,-2.894747 2.0676,-1.957882 2.79046,-2.536365 3.11154,-2.490044 0.84803,0.122341 4.17225,4.58411 6.08623,8.168921 l 0.9494,1.7782 -3.62576,1.52663 c -1.99417,0.83965 -3.78635,1.52663 -3.98263,1.52663 -0.25446,0 -0.61556,-0.46098 -1.25842,-1.6065 z"
     id="path14116-2" />
  <path
     style="fill:#252525;fill-opacity:1;stroke:#242424;stroke-width:0.703702;stroke-dasharray:none;stroke-opacity:1"
     d="m 182.45471,108.03054 c -0.20596,-2.05527 -0.64279,-4.40643 -1.13293,-6.09781 -0.25311,-0.87342 -0.4602,-1.74028 -0.4602,-1.92633 0,-0.263153 0.8098,-0.679193 3.64589,-1.873143 2.00525,-0.84417 3.76102,-1.49068 3.90173,-1.43668 0.14071,0.054 0.5084,0.91912 0.81709,1.92249 0.94353,3.066923 1.41816,5.569123 1.7852,9.411473 l 0.12005,1.25677 h -4.27545 -4.27544 z"
     id="path14118-3" />
  <path
     style="fill:#252525;fill-opacity:1;stroke:#242424;stroke-width:0.703702;stroke-dasharray:none;stroke-opacity:1"
     d="m 184.30605,123.08951 c -3.89937,-1.67216 -3.6489,-1.27435 -2.81052,-4.46392 0.43587,-1.65826 1.02671,-5.19814 1.0381,-6.21964 0.003,-0.30078 0.33331,-0.32583 4.29114,-0.32583 h 4.2875 l -0.10941,1.25677 c -0.30267,3.47685 -0.92302,6.63101 -1.90415,9.68176 -0.45081,1.40174 -0.53541,1.53482 -0.96764,1.52204 -0.2605,-0.008 -1.98176,-0.66073 -3.82502,-1.45118 z"
     id="path14120-0" />
  <path
     style="fill:#252525;fill-opacity:1;stroke:#242424;stroke-width:0.703702;stroke-dasharray:none;stroke-opacity:1"
     d="m 177.15879,134.93525 c -1.93407,-1.81542 -2.62759,-2.58186 -2.62759,-2.90388 0,-0.24719 0.33207,-0.81438 0.76339,-1.30391 0.9719,-1.10306 2.82629,-3.86972 3.53579,-5.27523 0.30088,-0.59605 0.66011,-1.08373 0.79828,-1.08373 0.13817,0 1.74982,0.6372 3.58143,1.416 1.83162,0.7788 3.52528,1.49138 3.76371,1.58353 l 0.43349,0.16753 -0.87649,1.62821 c -1.18113,2.19412 -2.97387,4.889 -4.47369,6.72495 -1.71447,2.09869 -1.62895,2.11533 -4.89832,-0.95347 z"
     id="path14122-3" />
  <path
     style="fill:#252525;fill-opacity:1;stroke:#242424;stroke-width:0.703702;stroke-dasharray:none;stroke-opacity:1"
     d="m 166.08899,143.08462 c -0.88656,-1.89212 -1.61193,-3.56661 -1.61193,-3.72107 0,-0.15799 0.50909,-0.5368 1.16368,-0.86589 1.49032,-0.74926 3.45208,-2.01043 4.94467,-3.17882 0.68161,-0.53357 1.32306,-0.89492 1.52874,-0.8612 0.51838,0.085 5.76843,5.1379 5.76843,5.55183 0,0.9589 -8.25701,6.50296 -9.69897,6.51226 -0.44459,0.003 -0.6099,-0.26839 -2.09462,-3.43711 z"
     id="path14124-5" />
  <path
     style="fill:#252525;fill-opacity:1;stroke:#242424;stroke-width:0.703702;stroke-dasharray:none;stroke-opacity:1"
     d="m 152.56105,146.3252 v -4.24605 l 0.88439,-0.10887 c 2.90874,-0.35808 4.8138,-0.70169 6.3662,-1.14828 0.96693,-0.27815 1.78738,-0.42841 1.82321,-0.3339 0.0358,0.0945 0.84607,1.80562 1.80052,3.80249 0.95445,1.99686 1.68401,3.68772 1.62126,3.75747 -0.0627,0.0697 -1.11951,0.43133 -2.34835,0.80351 -2.34649,0.71068 -6.51255,1.48351 -8.79737,1.63197 l -1.34986,0.0877 z"
     id="path14126-3" />
  <path
     style="fill:#252525;fill-opacity:1;stroke:#242424;stroke-width:0.703702;stroke-dasharray:none;stroke-opacity:1"
     d="m 148.37183,150.49239 c -2.58512,-0.17065 -6.61396,-0.9554 -9.35593,-1.82238 -1.35207,-0.42751 -1.53605,-0.53824 -1.53605,-0.9245 0,-0.34502 2.98615,-7.05325 3.26839,-7.34228 0.0379,-0.0388 0.84705,0.15337 1.79816,0.427 1.52721,0.43937 3.43815,0.78313 6.33745,1.14005 l 0.88439,0.10887 v 4.27091 c 0,3.3105 -0.0523,4.26336 -0.23274,4.23735 -0.128,-0.0185 -0.65165,-0.0612 -1.16367,-0.095 z"
     id="path14128-6" />
  <path
     style="fill:#252525;fill-opacity:1;stroke:#242424;stroke-width:0.703702;stroke-dasharray:none;stroke-opacity:1"
     d="m 132.1735,145.75487 c -2.1765,-1.22225 -4.65674,-2.88985 -6.26097,-4.2096 -1.8545,-1.52563 -1.85733,-1.51602 1.34176,-4.5464 1.44176,-1.36572 2.7775,-2.50928 2.9683,-2.54123 0.19756,-0.0331 0.85252,0.33769 1.5213,0.8612 1.51687,1.18741 3.4669,2.43692 4.99121,3.19821 0.66562,0.33243 1.23342,0.62467 1.26178,0.64942 0.0284,0.0248 -0.7309,1.71146 -1.68723,3.74824 -1.32443,2.82074 -1.82477,3.71251 -2.09962,3.74219 -0.19846,0.0214 -1.1149,-0.38448 -2.03653,-0.90203 z"
     id="path14130-3" />
  <path
     style="fill:#252525;fill-opacity:1;stroke:#242424;stroke-width:0.703702;stroke-dasharray:none;stroke-opacity:1"
     d="m 120.41021,136.05178 c -2.36155,-2.8781 -5.08669,-7.2533 -5.08669,-8.16665 0,-0.46146 0.21004,-0.58144 3.34612,-1.9114 1.84036,-0.78047 3.55179,-1.41904 3.80318,-1.41904 0.36204,0 0.58305,0.22257 1.06306,1.07058 0.98975,1.74856 2.20479,3.53946 3.36139,4.95449 0.59761,0.73114 1.08666,1.41579 1.08678,1.52145 1.3e-4,0.10566 -1.22401,1.34148 -2.7203,2.74627 -3.33478,3.13085 -3.28325,3.11807 -4.85354,1.2043 z"
     id="path14132-7" />
  <path
     style="fill:#252525;fill-opacity:1;stroke:#242424;stroke-width:0.703702;stroke-dasharray:none;stroke-opacity:1"
     d="m 113.033,122.36699 c -0.8211,-2.65806 -1.34275,-5.23704 -1.60709,-7.94531 -0.10919,-1.11862 -0.19852,-2.10309 -0.19852,-2.18771 0,-0.0846 1.91728,-0.15385 4.26063,-0.15385 h 4.26062 l 0.12354,1.25677 c 0.2373,2.41392 1.06115,6.2572 1.69587,7.91126 0.0848,0.22109 -0.67861,0.61754 -3.45692,1.79515 -1.9612,0.83126 -3.75403,1.51139 -3.98407,1.51139 -0.37148,0 -0.49384,-0.24468 -1.09406,-2.1877 z"
     id="path14134-1" />
  <path
     style="fill:#252525;fill-opacity:1;stroke:#242424;stroke-width:0.703702;stroke-dasharray:none;stroke-opacity:1"
     d="m 111.3266,107.84435 c 0.19362,-2.43497 0.83593,-5.98753 1.49968,-8.294503 0.69718,-2.4232 0.9107,-2.92362 1.24702,-2.92264 0.27262,8e-4 7.2406,2.94232 7.44457,3.14272 0.0788,0.0774 0.0109,0.511963 -0.15089,0.965673 -0.55144,1.54657 -1.16361,4.3898 -1.39361,6.47261 l -0.22959,2.0791 h -4.26596 -4.26596 z"
     id="path14136-4" />
  <path
     style="fill:#e6e6e6;stroke:#c9c9c9;stroke-width:2.71097;stroke-dasharray:none;stroke-opacity:1"
     id="path111-5-3"
     d="m 96.858114,108.88397 h 13.268076 m -15.534304,10.87418 12.190654,5.15395 m -18.319684,4.2082 9.620165,9.08327 m -18.545111,-2.53392 5.556607,11.78798 M 68.88395,138.10542 v 13.26806 m -10.653978,-15.70386 -5.556637,11.78797 m -3.368294,-18.33734 -9.620186,9.08325 m 3.491176,-18.44541 -12.190665,5.15392 m 9.924464,-16.02811 -13.26807,-3e-5 M 43.176085,98.009728 30.985443,92.855752 M 49.305137,88.647596 39.684992,79.564299 M 58.230096,82.098268 52.673519,70.31027 m 16.210557,9.352236 5.9e-5,-13.268064 m 10.653899,15.703914 5.556667,-11.787959 m 3.36825,18.337351 9.620207,-9.083234 M 94.591941,98.009921 106.78262,92.85603"
     sodipodi:type="arc"
     sodipodi:ry="30.055651"
     sodipodi:rx="28.808327"
     sodipodi:cy="108.88397"
     sodipodi:cx="68.883972"
     inkscape:path-effect="#path-effect4843-1"
     class="UnoptimicedTransforms"
     transform="translate(82.275203,1.7639333)" />
  <path
     style="fill:#252525;fill-opacity:1;stroke:#242424;stroke-width:3.76133;stroke-dasharray:none;stroke-opacity:1"
     d="m 211.97422,516.34986 c -43.62394,-7.02286 -77.19572,-40.2265 -84.11876,-83.19631 -1.70905,-10.60772 -0.79978,-28.83264 1.97362,-39.55823 7.06605,-27.3266 26.29872,-51.12039 51.39156,-63.57934 38.50143,-19.1165 82.33154,-12.2671 113.1975,17.68956 55.39733,53.76533 30.33313,146.57962 -44.94993,166.45243 -7.55011,1.99305 -30.4232,3.3302 -37.49399,2.19189 z"
     id="path14785"
     transform="scale(0.26458333)" />
  <path
     style="fill:#252525;fill-opacity:1;stroke:#242424;stroke-width:3.76133;stroke-dasharray:none;stroke-opacity:1"
     d="m 553.44723,515.45175 c -25.36304,-5.03954 -46.35935,-18.22468 -61.53842,-38.64449 -36.52207,-49.13175 -19.38347,-119.96452 35.56214,-146.97606 14.67726,-7.21542 26.70309,-10.08118 42.76955,-10.19203 13.26251,-0.0915 20.01858,0.87767 31.3483,4.49698 32.1566,10.27253 57.67302,37.70857 65.71565,70.65946 15.22298,62.36916 -32.66871,122.70451 -96.9251,122.10902 -5.54988,-0.0515 -13.16934,-0.70523 -16.93212,-1.45288 z"
     id="path14787"
     transform="scale(0.26458333)" />
  <g
     inkscape:groupmode="layer"
     id="layer3"
     inkscape:label="Layer 3">
    <circle
       style="fill:#000000;fill-opacity:1;stroke:#242424;stroke-width:1;stroke-dasharray:none;stroke-opacity:1"
       id="path15648"
       cx="59.703743"
       cy="110.61664"
       r="10.84847" />
    <circle
       style="fill:#000000;fill-opacity:1;stroke:#242424;stroke-width:1;stroke-dasharray:none;stroke-opacity:1"
       id="path15648-4"
       cx="151.21622"
       cy="110.60328"
       r="10.84847" />
    <path
       style="fill:#cecece;fill-opacity:1;stroke:#242424;stroke-width:3.76133;stroke-dasharray:none;stroke-opacity:1"
       d="m 560.28866,454.95587 c -9.21563,-3.04427 -16.18337,-8.41838 -21.2386,-16.381 -11.10496,-17.49174 -6.41224,-40.19533 10.79261,-52.21517 14.94953,-10.44419 35.87161,-8.48177 48.94417,4.5908 15.02223,15.02222 14.91801,39.198 -0.23429,54.3503 -7.32477,7.32478 -14.37879,10.29567 -25.3265,10.66659 -5.55919,0.18836 -10.46665,-0.19534 -12.93739,-1.01152 z"
       id="path15750"
       transform="scale(0.26458333)" />
    <path
       style="fill:#cecece;fill-opacity:1;stroke:#242424;stroke-width:3.76133;stroke-dasharray:none;stroke-opacity:1"
       d="m 213.56222,454.83777 c -9.54928,-3.0765 -19.57401,-12.42592 -23.56489,-21.97742 -2.52142,-6.03463 -3.38908,-13.75269 -2.31533,-20.59568 4.39994,-28.04089 36.7038,-41.91338 59.88627,-25.71741 24.01715,16.77911 21.24584,53.036 -5.04386,65.98872 -5.80202,2.8586 -7.7154,3.28629 -15.59623,3.48612 -5.63973,0.14301 -10.61411,-0.29776 -13.36596,-1.18433 z"
       id="path17822"
       transform="scale(0.26458333)" />
  </g>
</svg>
