<?xml version="1.0" encoding="UTF-8"?>
<!-- Created with Inkscape (http://www.inkscape.org/) -->
<svg width="179.24mm" height="174.55mm" version="1.1" viewBox="0 0 179.24 174.55" xmlns="http://www.w3.org/2000/svg">
 <g transform="translate(-15.803 -3.0302)" stroke="#f00">
  <path d="m105 177.58v-143.33" fill="#cecece" stroke-width="7.2"/>
  <path d="m73.326 42.839 27.485-29.795 3.6-4.46 32.162 34.255z" fill="#f00" stroke-width="7.3"/>
 </g>
 <g transform="translate(-15.803 -3.0302)">
  <circle class="UnoptimicedTransforms" transform="translate(-9.1976,1.7639)" cx="68.884" cy="108.88" r="41.951" fill="none" stroke="#000" stroke-width="3.865"/>
  <path class="UnoptimicedTransforms" transform="translate(-9.1976,1.7639)" d="m68.884 78.828v-11.896" fill="#808080" stroke="#dfdfdf" stroke-width=".99604"/>
  <circle class="UnoptimicedTransforms" transform="matrix(.68671 0 0 .68671 12.383 35.877)" cx="68.884" cy="108.88" r="41.951" fill="none" stroke="#000" stroke-width="7.2811"/>
  <g fill="#252525" stroke="#242424">
   <path d="m27.251 95.361c-3.032-1.2807-3.3961-1.4813-3.3979-1.8726-0.0045-0.9437 2.6657-5.3049 5.025-8.2073 0.88826-1.0928 1.3281-1.4905 1.6534-1.4952 0.32036-0.0046 1.2346 0.74578 3.2985 2.7074l2.8553 2.7138-1.1798 1.4288c-1.2363 1.4973-2.9499 4.0403-3.629 5.3853-0.29404 0.58241-0.50909 0.78903-0.81464 0.7827-0.22832-0.0047-1.9433-0.65406-3.811-1.443z"/>
   <g stroke-width=".7037">
    <path d="m35.858 84.395c-3.2876-3.1075-3.2854-3.1005-1.4412-4.6241 2.601-2.1488 7.4621-5.1234 8.3474-5.1079 0.27703 0.0048 0.66935 0.67504 1.7533 2.9952 0.76802 1.6439 1.5398 3.3174 1.7151 3.7188l0.31872 0.72982-1.2497 0.63114c-1.4783 0.74662-4.2701 2.5662-5.41 3.5261-0.4449 0.37464-0.92746 0.68116-1.0723 0.68116-0.14489 0-1.4775-1.1476-2.9614-2.5501z"/>
    <path d="m49 80.382c-0.0898-0.23041-0.80368-1.7569-1.5864-3.3923-0.85193-1.7799-1.4011-3.1558-1.3682-3.4279 0.04446-0.36763 0.25073-0.52173 1.079-0.8061 2.6355-0.90486 6.4158-1.659 9.6352-1.9221l1.536-0.12555v8.6034h-0.58122c-1.0228 0-4.4318 0.5655-6.238 1.0348-2.1455 0.55743-2.2724 0.55927-2.4764 0.03578z"/>
    <path d="m68.469 80.511c-0.97632-0.35799-4.1769-0.9623-5.9382-1.1212l-1.443-0.13018v-4.2566c0-4.0531 0.01685-4.2566 0.35265-4.2566 0.96518 0 4.4204 0.432 6.0708 0.75902 2.4706 0.48953 6.0511 1.6135 6.0512 1.8996 5.1e-5 0.12502-0.76618 1.8402-1.7027 3.8114-1.8904 3.9789-1.7902 3.8815-3.3907 3.2946z"/>
    <path d="m79.296 86.127c-1.3084-1.0659-3.8691-2.7287-5.221-3.3904-0.60752-0.29738-1.0721-0.64819-1.074-0.81108-0.0019-0.15788 0.73124-1.8547 1.6291-3.7707 1.3141-2.8042 1.7052-3.4845 2.0049-3.4879 1.3535-0.01534 9.5843 5.5754 9.736 6.6131 0.03946 0.26996-0.70715 1.0911-2.7438 3.0178-1.5389 1.4558-2.9171 2.647-3.0627 2.647s-0.71648-0.368-1.2686-0.81778z"/>
    <path d="m87.032 95.206c-0.49586-0.88357-1.5928-2.5196-2.4376-3.6356-0.84483-1.116-1.536-2.1841-1.536-2.3735 0-0.20162 1.1164-1.4015 2.6933-2.8947 2.0676-1.9579 2.7905-2.5364 3.1115-2.49 0.84802 0.12234 4.1722 4.5841 6.0862 8.1689l0.9494 1.7782-3.6258 1.5266c-1.9942 0.83965-3.7864 1.5266-3.9826 1.5266-0.25446 0-0.61556-0.46098-1.2584-1.6065z"/>
    <path d="m90.982 108.03c-0.20596-2.0553-0.64279-4.4064-1.1329-6.0978-0.25311-0.87343-0.4602-1.7403-0.4602-1.9263 0-0.26315 0.8098-0.6792 3.6459-1.8731 2.0052-0.84417 3.761-1.4907 3.9017-1.4367 0.14071 0.05399 0.5084 0.91912 0.81709 1.9225 0.94354 3.0669 1.4182 5.5691 1.7852 9.4115l0.12005 1.2568h-8.5509z"/>
    <path d="m92.833 123.09c-3.8994-1.6722-3.6489-1.2744-2.8105-4.4639 0.43588-1.6583 1.0267-5.1982 1.0381-6.2196 0.0034-0.30078 0.33331-0.32583 4.2911-0.32583h4.2875l-0.10941 1.2568c-0.30268 3.4769-0.92302 6.631-1.9042 9.6818-0.45081 1.4018-0.53541 1.5348-0.96764 1.522-0.2605-8e-3 -1.9818-0.66073-3.825-1.4512z"/>
    <path d="m85.686 134.94c-1.9341-1.8154-2.6276-2.5819-2.6276-2.9039 0-0.24719 0.33207-0.81437 0.76339-1.3039 0.9719-1.1031 2.8263-3.8697 3.5358-5.2752 0.30088-0.59604 0.66012-1.0837 0.79828-1.0837 0.13817 0 1.7498 0.6372 3.5814 1.416 1.8316 0.77879 3.5253 1.4914 3.7637 1.5835l0.43349 0.16753-0.87649 1.6282c-1.1811 2.1941-2.9739 4.889-4.4737 6.7249-1.7145 2.0987-1.629 2.1153-4.8983-0.95346z"/>
    <path d="m74.616 143.08c-0.88656-1.8921-1.6119-3.5666-1.6119-3.7211 0-0.15798 0.50909-0.53679 1.1637-0.86588 1.4903-0.74926 3.4521-2.0104 4.9447-3.1788 0.68161-0.53357 1.3231-0.89492 1.5287-0.8612 0.51838 0.085 5.7684 5.1379 5.7684 5.5518 0 0.9589-8.257 6.503-9.699 6.5123-0.44459 3e-3 -0.60989-0.2684-2.0946-3.4371z"/>
    <path d="m61.088 146.33v-4.246l0.88439-0.10887c2.9087-0.35808 4.8138-0.7017 6.3662-1.1483 0.96693-0.27816 1.7874-0.42842 1.8232-0.33391 0.03584 0.0945 0.84607 1.8056 1.8005 3.8025 0.95444 1.9969 1.684 3.6877 1.6213 3.7575-0.06275 0.0697-1.1195 0.43133-2.3483 0.8035-2.3465 0.71069-6.5126 1.4835-8.7974 1.632l-1.3499 0.0877z"/>
    <path d="m56.899 150.49c-2.5851-0.17066-6.614-0.95541-9.3559-1.8224-1.3521-0.4275-1.536-0.53823-1.536-0.92449 0-0.34502 2.9861-7.0533 3.2684-7.3423 0.03787-0.0388 0.84704 0.15337 1.7982 0.42701 1.5272 0.43937 3.4381 0.78313 6.3374 1.14l0.88439 0.10887v4.2709c0 3.3105-0.05233 4.2634-0.23274 4.2374-0.128-0.0185-0.65166-0.0612-1.1637-0.095z"/>
    <path d="m40.701 145.75c-2.1765-1.2222-4.6567-2.8898-6.261-4.2096-1.8545-1.5256-1.8573-1.516 1.3418-4.5464 1.4418-1.3657 2.7775-2.5093 2.9683-2.5412 0.19756-0.0331 0.85252 0.33769 1.5213 0.8612 1.5169 1.1874 3.4669 2.4369 4.9912 3.1982 0.66562 0.33243 1.2334 0.62468 1.2618 0.64943 0.02836 0.0248-0.7309 1.7115-1.6872 3.7482-1.3244 2.8208-1.8248 3.7125-2.0996 3.7422-0.19846 0.0214-1.1149-0.38448-2.0365-0.90203z"/>
    <path d="m28.937 136.05c-2.3615-2.8781-5.0867-7.2533-5.0867-8.1666 0-0.46146 0.21004-0.58144 3.3461-1.9114 1.8404-0.78047 3.5518-1.419 3.8032-1.419 0.36205 0 0.58305 0.22257 1.0631 1.0706 0.98976 1.7486 2.2048 3.5395 3.3614 4.9545 0.59761 0.73115 1.0867 1.4158 1.0868 1.5215 1.27e-4 0.10566-1.224 1.3415-2.7203 2.7463-3.3348 3.1308-3.2833 3.1181-4.8535 1.2043z"/>
    <path d="m21.56 122.37c-0.8211-2.6581-1.3427-5.237-1.6071-7.9453-0.10918-1.1186-0.19852-2.1031-0.19852-2.1877s1.9173-0.15385 4.2606-0.15385h4.2606l0.12354 1.2568c0.2373 2.4139 1.0611 6.2572 1.6959 7.9113 0.08484 0.22108-0.67861 0.61754-3.4569 1.7952-1.9612 0.83126-3.754 1.5114-3.9841 1.5114-0.37148 0-0.49384-0.24468-1.0941-2.1877z"/>
    <path d="m19.854 107.84c0.19362-2.435 0.83593-5.9875 1.4997-8.2945 0.69718-2.4232 0.9107-2.9236 1.247-2.9226 0.27262 7.94e-4 7.2406 2.9423 7.4446 3.1427 0.07878 0.07741 0.01088 0.51196-0.15088 0.96567-0.55144 1.5466-1.1636 4.3898-1.3936 6.4726l-0.22959 2.0791h-8.5319z"/>
   </g>
  </g>
  <circle class="UnoptimicedTransforms" transform="matrix(.68671 0 0 .68671 12.383 35.877)" cx="68.884" cy="108.88" r="41.951" fill="none" stroke="#000" stroke-width="7.2811"/>
  <path class="UnoptimicedTransforms" transform="translate(-9.1976,1.7639)" d="m96.858 108.88h13.268m-15.534 10.874 12.191 5.154m-18.32 4.2082 9.6202 9.0833m-18.545-2.5339 5.5566 11.788m-16.211-9.3522v13.268m-10.654-15.704-5.5566 11.788m-3.3683-18.337-9.6202 9.0832m3.4912-18.445-12.191 5.1539m9.9245-16.028-13.268-3e-5m15.534-10.874-12.191-5.154m18.32-4.2082-9.6201-9.0833m18.545 2.534-5.5566-11.788m16.211 9.3522 5.9e-5 -13.268m10.654 15.704 5.5567-11.788m3.3682 18.337 9.6202-9.0832m-3.4912 18.445 12.191-5.1539" fill="#e6e6e6" stroke="#c9c9c9" stroke-width="2.711"/>
  <circle class="UnoptimicedTransforms" transform="translate(82.275,1.7639)" cx="68.884" cy="108.88" r="41.951" fill="none" stroke="#000" stroke-width="3.865"/>
  <path class="UnoptimicedTransforms" transform="translate(82.275,1.7639)" d="m68.884 78.828v-11.896" fill="#808080" stroke="#dfdfdf" stroke-width=".99604"/>
  <circle class="UnoptimicedTransforms" transform="matrix(.68671 0 0 .68671 103.86 35.877)" cx="68.884" cy="108.88" r="41.951" fill="none" stroke="#000" stroke-width="7.2811"/>
 </g>
 <g transform="translate(-15.803 -3.0302)" fill="#252525" stroke="#242424">
  <path d="m118.72 95.361c-3.032-1.2807-3.3961-1.4813-3.3979-1.8726-5e-3 -0.9437 2.6656-5.3049 5.025-8.2073 0.88826-1.0928 1.3281-1.4905 1.6534-1.4952 0.32036-0.0046 1.2346 0.74578 3.2985 2.7074l2.8553 2.7138-1.1798 1.4288c-1.2363 1.4973-2.9499 4.0403-3.629 5.3853-0.29404 0.58241-0.50909 0.78903-0.81464 0.7827-0.22833-5e-3 -1.9433-0.65406-3.811-1.443z"/>
  <g stroke-width=".7037">
   <path d="m127.33 84.395c-3.2876-3.1075-3.2854-3.1005-1.4412-4.6241 2.601-2.1488 7.4621-5.1234 8.3474-5.1079 0.27703 0.0048 0.66934 0.67504 1.7533 2.9952 0.76802 1.6439 1.5398 3.3174 1.7151 3.7188l0.31872 0.72982-1.2497 0.63114c-1.4783 0.74662-4.2701 2.5662-5.41 3.5261-0.4449 0.37464-0.92746 0.68116-1.0723 0.68116-0.14489 0-1.4775-1.1476-2.9614-2.5501z"/>
   <path d="m140.47 80.382c-0.0898-0.23041-0.80368-1.7569-1.5864-3.3923-0.85193-1.7799-1.4011-3.1558-1.3682-3.4279 0.0445-0.36762 0.25073-0.52173 1.079-0.8061 2.6355-0.90486 6.4158-1.659 9.6352-1.9221l1.536-0.12555v8.6034h-0.58122c-1.0228 0-4.4318 0.5655-6.238 1.0348-2.1454 0.55744-2.2724 0.55927-2.4764 0.03578z"/>
   <path d="m159.94 80.511c-0.97632-0.35799-4.177-0.9623-5.9382-1.1212l-1.443-0.13018v-4.2566c0-4.0531 0.0169-4.2566 0.35265-4.2566 0.96518 0 4.4204 0.432 6.0708 0.75902 2.4706 0.48954 6.0511 1.6135 6.0512 1.8996 5e-5 0.12502-0.76619 1.8402-1.7027 3.8114-1.8904 3.9789-1.7902 3.8815-3.3907 3.2946z"/>
   <path d="m170.77 86.127c-1.3084-1.0659-3.8691-2.7287-5.221-3.3904-0.60752-0.29738-1.072-0.64819-1.074-0.81108-2e-3 -0.15787 0.73124-1.8547 1.6291-3.7707 1.3141-2.8042 1.7052-3.4845 2.0049-3.4879 1.3535-0.01535 9.5843 5.5754 9.736 6.6131 0.0395 0.26996-0.70714 1.0911-2.7438 3.0178-1.5389 1.4558-2.9171 2.647-3.0627 2.647s-0.71648-0.368-1.2686-0.81778z"/>
   <path d="m178.5 95.206c-0.49586-0.88357-1.5928-2.5196-2.4376-3.6356-0.84483-1.116-1.536-2.1841-1.536-2.3735 0-0.20162 1.1164-1.4015 2.6933-2.8947 2.0676-1.9579 2.7905-2.5364 3.1115-2.49 0.84803 0.12234 4.1722 4.5841 6.0862 8.1689l0.9494 1.7782-3.6258 1.5266c-1.9942 0.83965-3.7864 1.5266-3.9826 1.5266-0.25446 0-0.61556-0.46098-1.2584-1.6065z"/>
   <path d="m182.45 108.03c-0.20596-2.0553-0.64279-4.4064-1.1329-6.0978-0.25311-0.87342-0.4602-1.7403-0.4602-1.9263 0-0.26315 0.8098-0.67919 3.6459-1.8731 2.0052-0.84417 3.761-1.4907 3.9017-1.4367s0.5084 0.91912 0.81709 1.9225c0.94353 3.0669 1.4182 5.5691 1.7852 9.4115l0.12005 1.2568h-8.5509z"/>
   <path d="m184.31 123.09c-3.8994-1.6722-3.6489-1.2744-2.8105-4.4639 0.43587-1.6583 1.0267-5.1981 1.0381-6.2196 3e-3 -0.30078 0.33331-0.32583 4.2911-0.32583h4.2875l-0.10941 1.2568c-0.30267 3.4768-0.92302 6.631-1.9042 9.6818-0.45081 1.4017-0.53541 1.5348-0.96764 1.522-0.2605-8e-3 -1.9818-0.66073-3.825-1.4512z"/>
   <path d="m177.16 134.94c-1.9341-1.8154-2.6276-2.5819-2.6276-2.9039 0-0.24719 0.33207-0.81438 0.76339-1.3039 0.9719-1.1031 2.8263-3.8697 3.5358-5.2752 0.30088-0.59605 0.66011-1.0837 0.79828-1.0837s1.7498 0.6372 3.5814 1.416 3.5253 1.4914 3.7637 1.5835l0.43349 0.16753-0.87649 1.6282c-1.1811 2.1941-2.9739 4.889-4.4737 6.725-1.7145 2.0987-1.629 2.1153-4.8983-0.95347z"/>
   <path d="m166.09 143.08c-0.88656-1.8921-1.6119-3.5666-1.6119-3.7211 0-0.15799 0.50909-0.5368 1.1637-0.86589 1.4903-0.74926 3.4521-2.0104 4.9447-3.1788 0.68161-0.53357 1.3231-0.89492 1.5287-0.8612 0.51838 0.085 5.7684 5.1379 5.7684 5.5518 0 0.9589-8.257 6.503-9.699 6.5123-0.44459 3e-3 -0.6099-0.26839-2.0946-3.4371z"/>
   <path d="m152.56 146.33v-4.246l0.88439-0.10887c2.9087-0.35808 4.8138-0.70169 6.3662-1.1483 0.96693-0.27815 1.7874-0.42841 1.8232-0.3339 0.0358 0.0945 0.84607 1.8056 1.8005 3.8025 0.95445 1.9969 1.684 3.6877 1.6213 3.7575-0.0627 0.0697-1.1195 0.43133-2.3484 0.80351-2.3465 0.71068-6.5126 1.4835-8.7974 1.632l-1.3499 0.0877z"/>
   <path d="m148.37 150.49c-2.5851-0.17065-6.614-0.9554-9.3559-1.8224-1.3521-0.42751-1.536-0.53824-1.536-0.9245 0-0.34502 2.9862-7.0532 3.2684-7.3423 0.0379-0.0388 0.84705 0.15337 1.7982 0.427 1.5272 0.43937 3.4382 0.78313 6.3374 1.14l0.88439 0.10887v4.2709c0 3.3105-0.0523 4.2634-0.23274 4.2374-0.128-0.0185-0.65165-0.0612-1.1637-0.095z"/>
   <path d="m132.17 145.75c-2.1765-1.2222-4.6567-2.8898-6.261-4.2096-1.8545-1.5256-1.8573-1.516 1.3418-4.5464 1.4418-1.3657 2.7775-2.5093 2.9683-2.5412 0.19756-0.0331 0.85252 0.33769 1.5213 0.8612 1.5169 1.1874 3.4669 2.4369 4.9912 3.1982 0.66562 0.33243 1.2334 0.62467 1.2618 0.64942 0.0284 0.0248-0.7309 1.7115-1.6872 3.7482-1.3244 2.8207-1.8248 3.7125-2.0996 3.7422-0.19846 0.0214-1.1149-0.38448-2.0365-0.90203z"/>
   <path d="m120.41 136.05c-2.3616-2.8781-5.0867-7.2533-5.0867-8.1666 0-0.46146 0.21004-0.58144 3.3461-1.9114 1.8404-0.78047 3.5518-1.419 3.8032-1.419 0.36204 0 0.58305 0.22257 1.0631 1.0706 0.98975 1.7486 2.2048 3.5395 3.3614 4.9545 0.59761 0.73114 1.0867 1.4158 1.0868 1.5214 1.3e-4 0.10566-1.224 1.3415-2.7203 2.7463-3.3348 3.1308-3.2832 3.1181-4.8535 1.2043z"/>
   <path d="m113.03 122.37c-0.8211-2.6581-1.3428-5.237-1.6071-7.9453-0.10919-1.1186-0.19852-2.1031-0.19852-2.1877s1.9173-0.15385 4.2606-0.15385h4.2606l0.12354 1.2568c0.2373 2.4139 1.0612 6.2572 1.6959 7.9113 0.0848 0.22109-0.67861 0.61754-3.4569 1.7952-1.9612 0.83126-3.754 1.5114-3.9841 1.5114-0.37148 0-0.49384-0.24468-1.0941-2.1877z"/>
   <path d="m111.33 107.84c0.19362-2.435 0.83593-5.9875 1.4997-8.2945 0.69718-2.4232 0.9107-2.9236 1.247-2.9226 0.27262 8e-4 7.2406 2.9423 7.4446 3.1427 0.0788 0.0774 0.0109 0.51196-0.15089 0.96567-0.55144 1.5466-1.1636 4.3898-1.3936 6.4726l-0.22959 2.0791h-8.5319z"/>
  </g>
 </g>
 <g transform="translate(-15.803 -3.0302)">
  <path class="UnoptimicedTransforms" transform="translate(82.275,1.7639)" d="m96.858 108.88h13.268m-15.534 10.874 12.191 5.154m-18.32 4.2082 9.6202 9.0833m-18.545-2.5339 5.5566 11.788m-16.211-9.3522v13.268m-10.654-15.704-5.5566 11.788m-3.3683-18.337-9.6202 9.0832m3.4912-18.445-12.191 5.1539m9.9245-16.028-13.268-3e-5m15.534-10.874-12.191-5.154m18.32-4.2082-9.6201-9.0833m18.545 2.534-5.5566-11.788m16.211 9.3522 5.9e-5 -13.268m10.654 15.704 5.5567-11.788m3.3682 18.337 9.6202-9.0832m-3.4912 18.445 12.191-5.1539" fill="#e6e6e6" stroke="#c9c9c9" stroke-width="2.711"/>
  <path transform="scale(.26458)" d="m211.97 516.35c-43.624-7.0229-77.196-40.226-84.119-83.196-1.709-10.608-0.79978-28.833 1.9736-39.558 7.066-27.327 26.299-51.12 51.392-63.579 38.501-19.116 82.332-12.267 113.2 17.69 55.397 53.765 30.333 146.58-44.95 166.45-7.5501 1.993-30.423 3.3302-37.494 2.1919z" fill="#252525" stroke="#242424" stroke-width="3.7613"/>
  <path transform="scale(.26458)" d="m553.45 515.45c-25.363-5.0395-46.359-18.225-61.538-38.644-36.522-49.132-19.383-119.96 35.562-146.98 14.677-7.2154 26.703-10.081 42.77-10.192 13.263-0.0915 20.019 0.87767 31.348 4.497 32.157 10.273 57.673 37.709 65.716 70.659 15.223 62.369-32.669 122.7-96.925 122.11-5.5499-0.0515-13.169-0.70523-16.932-1.4529z" fill="#252525" stroke="#242424" stroke-width="3.7613"/>
 </g>
 <g transform="translate(-15.803 -3.0302)" stroke="#242424">
  <circle cx="59.704" cy="110.62" r="10.848"/>
  <circle cx="151.22" cy="110.6" r="10.848"/>
  <path transform="scale(.26458)" d="m560.29 454.96c-9.2156-3.0443-16.183-8.4184-21.239-16.381-11.105-17.492-6.4122-40.195 10.793-52.215 14.95-10.444 35.872-8.4818 48.944 4.5908 15.022 15.022 14.918 39.198-0.23429 54.35-7.3248 7.3248-14.379 10.296-25.326 10.667-5.5592 0.18836-10.467-0.19534-12.937-1.0115z" fill="#cecece" stroke-width="3.7613"/>
  <path transform="scale(.26458)" d="m213.56 454.84c-9.5493-3.0765-19.574-12.426-23.565-21.977-2.5214-6.0346-3.3891-13.753-2.3153-20.596 4.3999-28.041 36.704-41.913 59.886-25.717 24.017 16.779 21.246 53.036-5.0439 65.989-5.802 2.8586-7.7154 3.2863-15.596 3.4861-5.6397 0.14301-10.614-0.29776-13.366-1.1843z" fill="#cecece" stroke-width="3.7613"/>
 </g>
</svg>
